<svg xmlns="http://www.w3.org/2000/svg" viewBox="-3 -3 518 518" xml:space="preserve" transform="scale(-1 1)"><rect x="-3" y="-3" width="518" height="518" rx="38.4" stroke-width="0"/><path style="fill:#fff" d="M379.715 253.188h78.728v174.326h-264.3v67.481L53.557 388.15l140.586-106.845v67.481h185.572z"/><path style="fill:#fff" d="M419.079 388.15H53.557l140.586 106.845v-67.481h264.3V253.188h-39.364z"/><path d="M202.578 512 39.617 388.15 202.578 264.3v76.051H371.28v-95.598h95.598v191.196h-264.3V512zM67.498 388.15l118.21 89.84v-58.911h264.3V261.623H388.15v95.598H185.707V298.31L67.498 388.15z" fill="#fff"/><path transform="rotate(-142.129 135.124 407.847)" style="fill:#fff" d="M103.065 399.415h64.119v16.87h-64.119z"/><path style="fill:#fff" d="M132.285 258.812H53.557V84.486h264.3V17.005L458.443 123.85 317.857 230.695v-67.481H132.285z"/><path style="fill:#fff" d="M92.921 123.85h365.522L317.857 17.005v67.481h-264.3v174.326h39.364z"/><path d="M140.72 267.247H45.122V76.051h264.3V0l162.961 123.85L309.422 247.7v-76.051H140.72v95.598zm-78.728-16.87h61.857v-95.598h202.443v58.911l118.21-89.84-118.21-89.84v58.911h-264.3v157.456z" fill="#fff"/><path transform="rotate(-142.129 376.933 104.164)" style="fill:#fff" d="M344.876 95.73h64.119v16.87h-64.119z"/></svg>